<svg width="27" height="27" viewBox="0 0 27 27" fill="none" xmlns="http://www.w3.org/2000/svg">
<path d="M1 3.77778C1 3.04107 1.26339 2.33453 1.73223 1.81359C2.20107 1.29266 2.83696 1 3.5 1H11V26H3.5C2.83696 26 2.20107 25.7073 1.73223 25.1864C1.26339 24.6655 1 23.9589 1 23.2222V3.77778ZM16 1H23.5C24.163 1 24.7989 1.29266 25.2678 1.81359C25.7366 2.33453 26 3.04107 26 3.77778V10.7222H16V1ZM16 16.2778H26V23.2222C26 23.9589 25.7366 24.6655 25.2678 25.1864C24.7989 25.7073 24.163 26 23.5 26H16V16.2778Z" stroke="#006C34" stroke-width="2" stroke-linecap="round" stroke-linejoin="round"/>
</svg>
