<svg width="21" height="21" viewBox="0 0 21 21" fill="none" xmlns="http://www.w3.org/2000/svg">
<path d="M5.25 20.9999C5.25 20.9999 3.9375 20.9999 3.9375 19.5999C3.9375 18.1999 5.25 13.9999 10.5 13.9999C15.75 13.9999 17.0625 18.1999 17.0625 19.5999C17.0625 20.9999 15.75 20.9999 15.75 20.9999H5.25ZM10.5 12.6699C11.3702 12.6699 12.2048 12.3012 12.8202 11.6448C13.4355 10.9884 13.7812 10.0982 13.7812 9.16992C13.7812 8.24166 13.4355 7.35143 12.8202 6.69505C12.2048 6.03867 11.3702 5.66992 10.5 5.66992C9.62976 5.66992 8.79516 6.03867 8.17981 6.69505C7.56445 7.35143 7.21875 8.24166 7.21875 9.16992C7.21875 10.0982 7.56445 10.9884 8.17981 11.6448C8.79516 12.3012 9.62976 12.6699 10.5 12.6699Z" fill="#F0F0F0"/>
<path d="M2.625 0C1.92881 0 1.26113 0.294999 0.768845 0.820101C0.276562 1.3452 0 2.05739 0 2.8L0 16.1C0 16.657 0.207421 17.1911 0.576634 17.5849C0.945846 17.9788 1.44661 18.2 1.96875 18.2H2.82581C3.10024 17.1712 3.57723 16.2166 4.22494 15.4H1.3125V2.8C1.3125 2.4287 1.45078 2.0726 1.69692 1.81005C1.94306 1.5475 2.2769 1.4 2.625 1.4H18.375C18.7231 1.4 19.0569 1.5475 19.3031 1.81005C19.5492 2.0726 19.6875 2.4287 19.6875 2.8V15.4H16.7751C17.5022 16.3156 17.9432 17.3222 18.1742 18.2H19.0312C19.5534 18.2 20.0542 17.9788 20.4234 17.5849C20.7926 17.1911 21 16.657 21 16.1V2.8C21 2.05739 20.7234 1.3452 20.2312 0.820101C19.7389 0.294999 19.0712 0 18.375 0H2.625Z" fill="#F0F0F0"/>
</svg>
