<svg width="27" height="27" viewBox="0 0 27 27" fill="none" xmlns="http://www.w3.org/2000/svg">
<path d="M12.5384 21.1923H14.4615M19.2692 9.65385V5.80769M10.6154 9.65385V2.92308H4.84613V9.65385M23.1154 3.40385C23.1154 3.71952 23.0532 4.03211 22.9324 4.32376C22.8116 4.61541 22.6345 4.8804 22.4113 5.10362C22.1881 5.32684 21.9231 5.50391 21.6314 5.62471C21.3398 5.74552 21.0272 5.80769 20.7115 5.80769H17.8269C17.1894 5.80769 16.5779 5.55443 16.1271 5.10362C15.6763 4.65281 15.4231 4.04139 15.4231 3.40385C15.4231 2.76631 15.6763 2.15488 16.1271 1.70407C16.5779 1.25326 17.1894 1 17.8269 1H20.7115C21.0272 1 21.3398 1.06218 21.6314 1.18298C21.9231 1.30379 22.1881 1.48085 22.4113 1.70407C22.6345 1.92729 22.8116 2.19229 22.9324 2.48393C23.0532 2.77558 23.1154 3.08817 23.1154 3.40385Z" stroke="#006C34" stroke-width="2" stroke-linecap="round" stroke-linejoin="round"/>
<path d="M24.0769 16.3848H2.92308C1.86099 16.3848 1 17.2458 1 18.3078V24.0771C1 25.1392 1.86099 26.0002 2.92308 26.0002H24.0769C25.139 26.0002 26 25.1392 26 24.0771V18.3078C26 17.2458 25.139 16.3848 24.0769 16.3848Z" stroke="#006C34" stroke-width="2" stroke-linecap="round" stroke-linejoin="round"/>
<path d="M24.0769 16.3841V11.5764C24.0769 11.0664 23.8743 10.5772 23.5137 10.2166C23.153 9.85593 22.6639 9.65332 22.1539 9.65332H4.84617C4.33614 9.65332 3.847 9.85593 3.48635 10.2166C3.1257 10.5772 2.9231 11.0664 2.9231 11.5764V16.3841" stroke="#006C34" stroke-width="2" stroke-linecap="round" stroke-linejoin="round"/>
</svg>
