<svg width="21" height="21" viewBox="0 0 21 21" fill="none" xmlns="http://www.w3.org/2000/svg">
<path d="M17.7188 1.75C17.8928 1.75 18.0597 1.84219 18.1828 2.00628C18.3059 2.17038 18.375 2.39294 18.375 2.625V15.75H2.625V2.625C2.625 2.39294 2.69414 2.17038 2.81721 2.00628C2.94028 1.84219 3.1072 1.75 3.28125 1.75H17.7188ZM3.28125 0C2.75911 0 2.25835 0.276562 1.88913 0.768845C1.51992 1.26113 1.3125 1.92881 1.3125 2.625V17.5H19.6875V2.625C19.6875 1.92881 19.4801 1.26113 19.1109 0.768845C18.7417 0.276562 18.2409 0 17.7188 0H3.28125ZM0 18.375H21C21 19.0712 20.7926 19.7389 20.4234 20.2312C20.0542 20.7234 19.5534 21 19.0312 21H1.96875C1.44661 21 0.945846 20.7234 0.576634 20.2312C0.207421 19.7389 0 19.0712 0 18.375Z" fill="#006C34"/>
</svg>
