<svg width="22" height="22" viewBox="0 0 22 22" fill="none" xmlns="http://www.w3.org/2000/svg">
<path d="M10.4058 14.2479L16.3837 20.2259C16.8964 20.7222 17.5836 20.9971 18.2972 20.9913C19.0107 20.9855 19.6934 20.6995 20.198 20.1949C20.7025 19.6904 20.9885 19.0077 20.9943 18.2942C21.0001 17.5806 20.7252 16.8934 20.2289 16.3807L14.2027 10.3546M10.4058 14.2479L12.9651 11.141C13.2902 10.7473 13.7239 10.4991 14.2038 10.3556C14.7677 10.1874 15.3963 10.1628 15.991 10.212C16.7927 10.2809 17.5984 10.1389 18.3283 9.80015C19.0581 9.46142 19.6867 8.93773 20.1517 8.28104C20.6166 7.62435 20.9017 6.85749 20.9788 6.05657C21.0558 5.25564 20.9221 4.44849 20.5909 3.71521L17.2317 7.07539C16.6697 6.94543 16.1555 6.66028 15.7476 6.25239C15.3397 5.84451 15.0546 5.33029 14.9246 4.76828L18.2838 1.40913C17.5505 1.07789 16.7433 0.944162 15.9424 1.02121C15.1415 1.09826 14.3746 1.3834 13.7179 1.84835C13.0613 2.3133 12.5376 2.94188 12.1988 3.67173C11.8601 4.40158 11.7181 5.20732 11.7869 6.00899C11.8803 7.1123 11.7141 8.33046 10.86 9.03387L10.7554 9.12102M10.4058 14.2479L5.6326 20.0444C5.40127 20.3264 5.11345 20.5568 4.78768 20.7209C4.46191 20.8849 4.10541 20.9789 3.74111 20.9968C3.37681 21.0148 3.0128 20.9562 2.6725 20.825C2.33219 20.6937 2.02314 20.4927 1.76523 20.2348C1.50733 19.9769 1.30628 19.6678 1.17503 19.3275C1.04377 18.9872 0.985229 18.6232 1.00316 18.2589C1.02109 17.8946 1.1151 17.5381 1.27913 17.2123C1.44317 16.8865 1.67359 16.5987 1.95558 16.3674L8.96612 10.5945L4.75487 6.38326H3.31011L1.003 2.53807L2.54107 1L6.38626 3.30711V4.75187L10.7544 9.12L8.96509 10.5935M17.5373 17.5343L14.8457 14.8427M3.68643 18.3033H3.69463V18.3115H3.68643V18.3033Z" stroke="#006C34" stroke-width="1.5" stroke-linecap="round" stroke-linejoin="round"/>
</svg>
