<svg width="25" height="25" viewBox="0 0 25 25" fill="none" xmlns="http://www.w3.org/2000/svg">
<path d="M4.82917 2.81167C6.7375 2.11833 9.45 1.66667 12.5 1.66667C15.55 1.66667 18.2625 2.11667 20.1708 2.81167C22.175 3.54167 22.9167 4.37833 22.9167 5C22.9167 5.62333 22.175 6.45833 20.1708 7.18833C18.2625 7.88167 15.55 8.33333 12.5 8.33333C9.45 8.33333 6.7375 7.88333 4.82917 7.18833C2.825 6.45833 2.08333 5.62167 2.08333 5C2.08333 4.37667 2.825 3.54167 4.82917 2.81167ZM22.9167 7.83V10C22.9167 10.6233 22.175 11.4583 20.1708 12.1883C18.2625 12.8817 15.55 13.3333 12.5 13.3333C9.45 13.3333 6.7375 12.8833 4.82917 12.1883C2.825 11.4583 2.08333 10.6217 2.08333 10V7.83C2.64792 8.16667 3.29167 8.46 3.96667 8.705C6.20417 9.51833 9.22292 10 12.5 10C15.7771 10 18.7958 9.51833 21.0333 8.705C21.6982 8.46767 22.3295 8.17435 22.9167 7.83ZM25 5C25 3.32167 23.1771 2.075 21.0333 1.295C18.7958 0.481667 15.7771 0 12.5 0C9.22292 0 6.20417 0.481667 3.96667 1.295C1.82292 2.075 0 3.32167 0 5V20C0 21.6783 1.82292 22.925 3.96667 23.705C6.20417 24.5167 9.22292 25 12.5 25C15.7771 25 18.7958 24.5183 21.0333 23.705C23.1771 22.925 25 21.6783 25 20V5ZM22.9167 12.83V15C22.9167 15.6233 22.175 16.4583 20.1708 17.1883C18.2625 17.8817 15.55 18.3333 12.5 18.3333C9.45 18.3333 6.7375 17.8833 4.82917 17.1883C2.825 16.4583 2.08333 15.6217 2.08333 15V12.83C2.64792 13.1667 3.29167 13.46 3.96667 13.705C6.20417 14.5167 9.22292 15 12.5 15C15.7771 15 18.7958 14.5183 21.0333 13.705C21.6982 13.4677 22.3295 13.1743 22.9167 12.83ZM22.9167 17.83V20C22.9167 20.6233 22.175 21.4583 20.1708 22.1883C18.2625 22.8817 15.55 23.3333 12.5 23.3333C9.45 23.3333 6.7375 22.8833 4.82917 22.1883C2.825 21.4583 2.08333 20.6217 2.08333 20V17.83C2.64792 18.1667 3.29167 18.46 3.96667 18.705C6.20417 19.5167 9.22292 20 12.5 20C15.7771 20 18.7958 19.5183 21.0333 18.705C21.7083 18.46 22.3521 18.1667 22.9167 17.83Z" fill="#006C34"/>
</svg>
