<svg width="21" height="19" viewBox="0 0 21 19" fill="none" xmlns="http://www.w3.org/2000/svg">
<path d="M8.8255 8.53929C7.87538 8.53929 6.94659 8.28888 6.15659 7.81972C5.36659 7.35057 4.75086 6.68374 4.38726 5.90356C4.02367 5.12339 3.92853 4.26491 4.11389 3.43668C4.29925 2.60845 4.75678 1.84767 5.42862 1.25055C6.10046 0.653431 6.95644 0.246787 7.8883 0.0820419C8.82017 -0.0827032 9.78608 0.00184996 10.6639 0.325009C11.5417 0.648168 12.292 1.19542 12.8198 1.89756C13.3477 2.5997 13.6294 3.42519 13.6294 4.26964C13.6294 5.40202 13.1233 6.48802 12.2224 7.28874C11.3215 8.08945 10.0996 8.53929 8.8255 8.53929ZM8.8255 1.2687C8.14684 1.2687 7.48342 1.44756 6.91914 1.78267C6.35485 2.11778 5.91504 2.59409 5.65533 3.15135C5.39562 3.70862 5.32767 4.32182 5.46007 4.91342C5.59247 5.50501 5.91927 6.04842 6.39916 6.47493C6.87904 6.90145 7.49046 7.19191 8.15608 7.30958C8.8217 7.42726 9.51163 7.36686 10.1386 7.13604C10.7656 6.90521 11.3015 6.51431 11.6786 6.01279C12.0556 5.51126 12.2569 4.92162 12.2569 4.31844C12.2569 3.91794 12.1681 3.52136 11.9957 3.15135C11.8232 2.78134 11.5705 2.44514 11.2518 2.16194C10.9332 1.87875 10.5549 1.65411 10.1386 1.50084C9.72232 1.34758 9.27612 1.2687 8.8255 1.2687ZM12.648 9.27732C8.93422 8.53458 5.04896 8.89232 1.58532 10.2959C1.10897 10.4982 0.707065 10.8165 0.426404 11.2139C0.145744 11.6113 -0.00212265 12.0714 2.3024e-05 12.5405V16.1697C2.30221e-05 16.2498 0.0177741 16.3292 0.0522626 16.4032C0.0867511 16.4772 0.137301 16.5444 0.201028 16.601C0.264754 16.6577 0.340409 16.7026 0.423671 16.7333C0.506934 16.7639 0.596174 16.7797 0.686297 16.7797C0.77642 16.7797 0.86566 16.7639 0.948922 16.7333C1.03218 16.7026 1.10784 16.6577 1.17157 16.601C1.23529 16.5444 1.28584 16.4772 1.32033 16.4032C1.35482 16.3292 1.37257 16.2498 1.37257 16.1697V12.5405C1.3666 12.3031 1.43874 12.0693 1.58015 11.8677C1.72157 11.6662 1.9261 11.5057 2.16865 11.406C4.2551 10.5498 6.52739 10.1105 8.8255 10.1191C10.1132 10.1176 11.3964 10.2527 12.648 10.5216V9.27732ZM12.7441 15.0779H16.9578V15.9319H12.7441V15.0779Z" fill="#F0F0F0"/>
<path d="M20.3136 11.4549H16.7656V12.6748H19.6273V17.7801H9.90282V12.6748H14.2263V12.931C14.2263 13.0928 14.2986 13.2479 14.4273 13.3623C14.5561 13.4767 14.7306 13.541 14.9126 13.541C15.0946 13.541 15.2692 13.4767 15.3979 13.3623C15.5266 13.2479 15.5989 13.0928 15.5989 12.931V10.5583C15.5989 10.3965 15.5266 10.2414 15.3979 10.127C15.2692 10.0126 15.0946 9.94836 14.9126 9.94836C14.7306 9.94836 14.5561 10.0126 14.4273 10.127C14.2986 10.2414 14.2263 10.3965 14.2263 10.5583V11.4549H9.21655C9.03454 11.4549 8.85998 11.5192 8.73128 11.6336C8.60258 11.748 8.53027 11.9031 8.53027 12.0649V18.3901C8.53027 18.5518 8.60258 18.707 8.73128 18.8214C8.85998 18.9357 9.03454 19 9.21655 19H20.3136C20.4956 19 20.6702 18.9357 20.7989 18.8214C20.9276 18.707 20.9999 18.5518 20.9999 18.3901V12.0649C20.9999 11.9031 20.9276 11.748 20.7989 11.6336C20.6702 11.5192 20.4956 11.4549 20.3136 11.4549Z" fill="#F0F0F0"/>
</svg>
