<svg width="23" height="18" viewBox="0 0 23 18" fill="none" xmlns="http://www.w3.org/2000/svg">
<path d="M21.5625 18C21.5625 18 23 18 23 16.5C23 15 21.5625 10.5 15.8125 10.5C10.0625 10.5 8.625 15 8.625 16.5C8.625 18 10.0625 18 10.0625 18H21.5625ZM10.0941 16.5C10.0835 16.4985 10.073 16.4965 10.0625 16.494C10.0639 16.098 10.3026 14.949 11.155 13.914C11.9485 12.9435 13.3429 12 15.8125 12C18.2807 12 19.6751 12.945 20.47 13.914C21.3224 14.949 21.5596 16.0995 21.5625 16.494L21.551 16.497C21.5443 16.4982 21.5376 16.4992 21.5309 16.5H10.0941ZM15.8125 7.5C16.575 7.5 17.3063 7.18393 17.8454 6.62132C18.3846 6.05871 18.6875 5.29565 18.6875 4.5C18.6875 3.70435 18.3846 2.94129 17.8454 2.37868C17.3063 1.81607 16.575 1.5 15.8125 1.5C15.05 1.5 14.3187 1.81607 13.7796 2.37868C13.2404 2.94129 12.9375 3.70435 12.9375 4.5C12.9375 5.29565 13.2404 6.05871 13.7796 6.62132C14.3187 7.18393 15.05 7.5 15.8125 7.5ZM20.125 4.5C20.125 5.09095 20.0135 5.67611 19.7967 6.22208C19.58 6.76804 19.2624 7.26412 18.8619 7.68198C18.4614 8.09984 17.986 8.43131 17.4628 8.65746C16.9396 8.8836 16.3788 9 15.8125 9C15.2462 9 14.6854 8.8836 14.1622 8.65746C13.639 8.43131 13.1636 8.09984 12.7631 7.68198C12.3626 7.26412 12.045 6.76804 11.8283 6.22208C11.6115 5.67611 11.5 5.09095 11.5 4.5C11.5 3.30653 11.9544 2.16193 12.7631 1.31802C13.5719 0.474106 14.6688 0 15.8125 0C16.9562 0 18.0531 0.474106 18.8619 1.31802C19.6706 2.16193 20.125 3.30653 20.125 4.5ZM9.9705 10.92C9.39547 10.7311 8.80273 10.6069 8.20237 10.5495C7.86504 10.516 7.52636 10.4995 7.1875 10.5C1.4375 10.5 0 15 0 16.5C0 17.5005 0.478688 18 1.4375 18H7.498C7.2849 17.5317 7.17862 17.0183 7.1875 16.5C7.1875 14.985 7.72944 13.437 8.75438 12.144C9.10369 11.703 9.5105 11.2905 9.9705 10.92ZM7.0725 12C6.22172 13.3339 5.76213 14.8977 5.75 16.5H1.4375C1.4375 16.11 1.67325 14.955 2.53 13.914C3.31344 12.96 4.67475 12.03 7.0725 12.0015V12ZM2.15625 5.25C2.15625 4.05653 2.6106 2.91193 3.41935 2.06802C4.2281 1.22411 5.325 0.75 6.46875 0.75C7.6125 0.75 8.7094 1.22411 9.51815 2.06802C10.3269 2.91193 10.7812 4.05653 10.7812 5.25C10.7812 6.44347 10.3269 7.58807 9.51815 8.43198C8.7094 9.27589 7.6125 9.75 6.46875 9.75C5.325 9.75 4.2281 9.27589 3.41935 8.43198C2.6106 7.58807 2.15625 6.44347 2.15625 5.25ZM6.46875 2.25C5.70625 2.25 4.97498 2.56607 4.43582 3.12868C3.89665 3.69129 3.59375 4.45435 3.59375 5.25C3.59375 6.04565 3.89665 6.80871 4.43582 7.37132C4.97498 7.93393 5.70625 8.25 6.46875 8.25C7.23125 8.25 7.96252 7.93393 8.50168 7.37132C9.04085 6.80871 9.34375 6.04565 9.34375 5.25C9.34375 4.45435 9.04085 3.69129 8.50168 3.12868C7.96252 2.56607 7.23125 2.25 6.46875 2.25Z" fill="#F0F0F0"/>
</svg>
