<svg width="21" height="21" viewBox="0 0 21 21" fill="none" xmlns="http://www.w3.org/2000/svg">
<path d="M9.27556 0.438906L11.8382 3.00231C12.4129 3.57709 12.4136 4.51848 11.8382 5.09397L11.0391 5.89446C11.085 5.91367 11.126 5.94301 11.159 5.98027C11.192 6.01753 11.2162 6.06176 11.2298 6.10966C11.2433 6.15757 11.2459 6.20791 11.2373 6.25694C11.2286 6.30597 11.2091 6.35242 11.18 6.39284L11.037 6.57579L11.7555 7.29497L11.8249 7.20595C11.944 7.03772 12.1893 7.00968 12.3365 7.15688C12.4487 7.26904 12.4627 7.45129 12.3716 7.58447L12.2286 7.76742L12.94 8.47959L13.0094 8.39057C13.1286 8.22234 13.3739 8.1943 13.5211 8.3415C13.6333 8.45365 13.6473 8.6359 13.5562 8.76909L13.4132 8.95274L13.7503 9.2892L14.8893 8.14944C15.0262 8.01043 15.1894 7.90004 15.3694 7.82469C15.5493 7.74934 15.7425 7.71053 15.9376 7.71053C16.1327 7.71053 16.3258 7.74934 16.5058 7.82469C16.6858 7.90004 16.8489 8.01043 16.9858 8.14944L19.5492 10.7128C20.1239 11.2876 20.1239 12.229 19.5492 12.8045L18.7669 13.5875C18.8189 13.6434 18.8498 13.7156 18.8544 13.7918C18.859 13.868 18.837 13.9435 18.7922 14.0052L18.6492 14.1889L19.3676 14.9074L19.437 14.8183C19.5562 14.6501 19.8015 14.6221 19.9487 14.7693C20.0608 14.8814 20.0749 15.0637 19.9837 15.1969L19.8408 15.3805L20.384 15.9238C20.5793 16.119 20.7342 16.3509 20.8399 16.606C20.9456 16.8612 21 17.1347 21 17.4108C21 17.687 20.9456 17.9605 20.8399 18.2157C20.7342 18.4708 20.5793 18.7026 20.384 18.8979L18.8973 20.384C18.5037 20.7777 17.97 20.9992 17.4132 21C16.8565 21.0008 16.3222 20.7808 15.9274 20.3882L15.6961 20.6847C15.577 20.8529 15.3316 20.8809 15.1844 20.7337C15.1285 20.6784 15.0942 20.6049 15.0878 20.5264C15.0814 20.448 15.1032 20.3699 15.1494 20.3061L15.4543 19.915L14.7358 19.1965L14.5045 19.493C14.3854 19.6613 14.14 19.6893 13.9929 19.5421C13.9369 19.4868 13.9026 19.4132 13.8962 19.3348C13.8898 19.2564 13.9116 19.1782 13.9578 19.1145L14.2627 18.7234L13.9494 18.4094L12.7992 19.561C12.2244 20.1358 11.2823 20.1358 10.7069 19.561L8.14145 16.9955C7.86528 16.7175 7.71028 16.3416 7.71028 15.9497C7.71028 15.5578 7.86528 15.1819 8.14145 14.9039L8.74776 14.2968C8.69541 14.241 8.66413 14.1687 8.65927 14.0924C8.65441 14.016 8.67628 13.9404 8.72112 13.8784L9.02673 13.4872L8.31528 12.7758L8.08397 13.0723C7.96481 13.2405 7.71948 13.2685 7.57229 13.1213C7.51635 13.066 7.48206 12.9925 7.47563 12.914C7.4692 12.8356 7.49106 12.7575 7.53724 12.6937L7.84215 12.3026L7.12369 11.5841L6.89238 11.8806C6.77322 12.0489 6.5279 12.0769 6.3807 11.9297C6.32476 11.8744 6.29047 11.8008 6.28404 11.7224C6.27761 11.644 6.29947 11.5658 6.34565 11.5021L6.65056 11.111L6.23911 10.6988L5.08888 11.8505C4.51411 12.4253 3.57205 12.4253 2.99658 11.8505L0.431163 9.28499C0.154996 9.00699 0 8.63103 0 8.23916C0 7.8473 0.154996 7.47134 0.431163 7.19333L7.17906 0.438906C7.31596 0.299897 7.47914 0.189506 7.6591 0.114155C7.83906 0.0388044 8.03221 0 8.22731 0C8.42241 0 8.61556 0.0388044 8.79552 0.114155C8.97548 0.189506 9.13866 0.299897 9.27556 0.438906ZM7.22953 9.70837L7.52042 9.99927L9.6064 7.32862L7.22953 9.70837ZM8.27603 1.42305C8.26301 1.41004 8.24536 1.40273 8.22696 1.40273C8.20856 1.40273 8.19091 1.41004 8.1779 1.42305L8.17299 1.42866L6.27556 3.32825L8.95033 6.00241L10.8471 4.10351C10.854 4.09625 10.8595 4.08768 10.8631 4.07829C10.8667 4.0689 10.8684 4.05889 10.8681 4.04884C10.8684 4.03878 10.8667 4.02876 10.8631 4.01936C10.8595 4.00997 10.854 4.0014 10.8471 3.99416L8.28163 1.42866L8.27603 1.42305ZM8.45477 6.49798L5.7807 3.82313L3.82369 5.7816L6.49846 8.45646L8.45477 6.49728V6.49798ZM3.32813 6.27788L1.42299 8.18519C1.41599 8.19242 1.41053 8.20099 1.40691 8.21039C1.4033 8.21978 1.40162 8.2298 1.40196 8.23986C1.40196 8.2644 1.41107 8.28262 1.42299 8.29454L3.98841 10.86C3.99962 10.872 4.01785 10.8811 4.04238 10.8811C4.05244 10.8814 4.06246 10.8797 4.07185 10.8761C4.08125 10.8725 4.08982 10.867 4.09705 10.86L6.0036 8.95203L3.32813 6.27718V6.27788ZM12.5433 10.0659L10.9921 12.0517L12.7592 10.2825L12.5433 10.0659ZM14.9398 17.4189L15.1326 17.6117L16.5148 15.8424L14.9398 17.4189ZM7.99355 10.4724L8.71201 11.1909L10.8856 8.40809L10.1671 7.68961L7.99355 10.4724ZM11.3587 8.88124L9.18514 11.664L9.89659 12.3755L12.0702 9.59271L11.3587 8.88124ZM17.7793 15.302L15.6057 18.0848L16.3242 18.8033L18.4978 16.0205L17.7793 15.302ZM18.9709 16.4936L16.7973 19.2764L16.9143 19.3942C16.9794 19.4594 17.0568 19.5111 17.1418 19.5463C17.2269 19.5816 17.3181 19.5998 17.4103 19.5998C17.5024 19.5998 17.5936 19.5816 17.6787 19.5463C17.7638 19.5111 17.8411 19.4594 17.9062 19.3942L19.3922 17.9068C19.5236 17.7753 19.5974 17.5971 19.5974 17.4112C19.5974 17.2253 19.5236 17.0471 19.3922 16.9156L18.9709 16.4936ZM15.9863 9.13358C15.9733 9.12057 15.9556 9.11326 15.9372 9.11326C15.9188 9.11326 15.9012 9.12057 15.8882 9.13358L15.8833 9.13919L13.9858 11.0388L16.6606 13.7129L18.5573 11.814C18.5643 11.8068 18.5697 11.7982 18.5734 11.7888C18.577 11.7794 18.5787 11.7694 18.5784 11.7594C18.5787 11.7493 18.577 11.7393 18.5734 11.7299C18.5698 11.7205 18.5643 11.7119 18.5573 11.7047L15.9919 9.13919L15.9863 9.13358ZM16.165 14.2085L13.4903 11.5344L11.5347 13.4928L14.2087 16.1677L16.165 14.2085ZM11.0384 13.9884L9.13327 15.8964C9.12628 15.9037 9.12081 15.9122 9.1172 15.9216C9.11359 15.931 9.1119 15.941 9.11224 15.9511C9.11224 15.9756 9.12135 15.9939 9.13327 16.0058L11.6987 18.5713C11.7099 18.5832 11.7281 18.5923 11.7534 18.5923C11.7633 18.5926 11.7732 18.5908 11.7825 18.5872C11.7917 18.5836 11.8002 18.5782 11.8073 18.5713L13.7139 16.6633L11.0384 13.9884Z" fill="#006C34"/>
</svg>
